<?xml version="1.0" encoding="utf-8"?>
<svg id="master-artboard" viewBox="0 0 1400 980" version="1.1" xmlns="http://www.w3.org/2000/svg" x="0px" y="0px" enable-background="new 0 0 1400 980" width="1400px" height="980px"><rect id="ee-background" x="0" y="0" width="1400" height="980" style="fill: white; fill-opacity: 0; pointer-events: none;"/>
<g transform="matrix(1, 0, 0, 1, -3.6380615234375, -7.276123046875)">
		<g>
			<path d="M 0 0 H 1400 V 980 H 0 V 0 Z" id="XMLID_780_" fill="#ADC6B9"/>
		</g>
	</g><path id="XMLID_782_" fill="#C3D4CA" d="M764.1,360.6c-50.5-45.4-355.1,7.4-452,0c-96.9-7.4-68.2-22.3-144.3-67&#10;&#9;&#9;c-49.8-29.3-111.5-26.2-148.3-20.5V406h1360.7v-33.6C1256.1,379,807.5,399.7,764.1,360.6z" transform="matrix(1, 0, 0, 1, -3.6380615234375, -7.276123046875)"/><path fill="#869E90" d="M308.7,952.3v-43.3h-30.9v-24.7c0,0-17.9-5.1-39.2-48.7c-21.4-43.5-30-97.6-40.4-110&#10;&#9;&#9;c-2.5-3-5.1-5.6-7.7-7.9h2.1c1.5,0,2.7-1.2,2.7-2.7v-17.2c0-1.5-1.2-2.7-2.7-2.7h-9.7v-2.8h2.4v-8.5h-5.5v-5.6h2.4V673h-6.9v-8&#10;&#9;&#9;h-4.5c1.1-2.6,1.8-6,1.8-9.6c0-5.5-1.5-10.3-3.8-12.9h3.6V637h-3.3v-1.8h1.6v-4h-2.2l-4.1-184l-3,184h-2.2v4h1.8v1.8h-3.6v5.4h3.6&#10;&#9;&#9;c-2.3,2.6-3.8,7.4-3.8,12.9c0,3.7,0.7,7,1.8,9.6h-4.5v8h-6.9v5.2h2.4v5.6h-5.5v8.5h2.4v2.8h-9.7c-1.5,0-2.7,1.2-2.7,2.7V715&#10;&#9;&#9;c0,1.5,1.2,2.7,2.7,2.7h2.1c-2.6,2.3-5.2,4.9-7.7,7.9c-10.3,12.4-19,66.5-40.4,110c-21.4,43.5-39.2,48.7-39.2,48.7v24.7H21.4v43.3&#10;&#9;&#9;H0V973h165h0h165v-20.7H308.7z" transform="matrix(1, 0, 0, 1, -3.6380615234375, -7.276123046875)"/><path fill="#869E90" d="M1373.6,952.3v-43.3h-30.9v-24.7c0,0-17.9-5.1-39.2-48.7c-21.4-43.5-30-97.6-40.4-110&#10;&#9;&#9;c-2.5-3-5.1-5.6-7.7-7.9h2.1c1.5,0,2.7-1.2,2.7-2.7v-17.2c0-1.5-1.2-2.7-2.7-2.7h-9.7v-2.8h2.4v-8.5h-5.5v-5.6h2.4V673h-6.9v-8&#10;&#9;&#9;h-4.5c1.1-2.6,1.8-6,1.8-9.6c0-5.5-1.5-10.3-3.8-12.9h3.6V637h-3.3v-1.8h1.6v-4h-2.2l-4.1-184l-3,184h-2.2v4h1.8v1.8h-3.6v5.4h3.6&#10;&#9;&#9;c-2.3,2.6-3.8,7.4-3.8,12.9c0,3.7,0.7,7,1.8,9.6h-4.5v8h-6.9v5.2h2.4v5.6h-5.5v8.5h2.4v2.8h-9.7c-1.5,0-2.7,1.2-2.7,2.7V715&#10;&#9;&#9;c0,1.5,1.2,2.7,2.7,2.7h2.1c-2.6,2.3-5.2,4.9-7.7,7.9c-10.3,12.4-19,66.5-40.4,110c-21.4,43.5-39.2,48.7-39.2,48.7v24.7h-30.9v43.3&#10;&#9;&#9;h-21.4V973h165h0h165v-20.7H1373.6z" transform="matrix(1, 0, 0, 1, -3.6380615234375, -7.276123046875)"/><path fill="#7CA588" d="M706.4,215.9l7.8,99.4l14.8-4.6c0,0,3.5,6.6-0.2,10c0,0,2.1,2.6,6.3,2.3c0,0-3.6,8,1.6,10.1&#10;&#9;&#9;&#9;c0,0,5.4-3.1,5.8-0.1s-8.3,23.8,1,28c9.3,4.2,56.2-1.4,56.2-1.4l69.6-24.4l-25.7-163.7l-87.9,10.4L706.4,215.9z" transform="matrix(1, 0, 0, 1, -3.6380615234375, -7.276123046875)"/><path fill="#597D68" d="M851.6,153c-2.1-0.9-4.3-0.7-6.2,0.3c-0.5-2-1.9-3.7-4-4.6c-2.4-1-5.1-0.6-7.1,0.9&#10;&#9;&#9;&#9;&#9;c-0.7-1.1-1.8-2-3.1-2.6c-2.1-0.9-4.4-0.7-6.3,0.3c-0.7-1.2-1.8-2.3-3.3-2.9c-2.3-1-4.9-0.6-6.8,0.7c-0.7-1-1.7-1.9-3-2.4&#10;&#9;&#9;&#9;&#9;c-2.8-1.2-5.9-0.5-7.9,1.6c-0.7-1.1-1.8-2-3.1-2.5c-3.6-1.5-7.8,0.1-9.4,3.6c-0.8,1.8-0.8,3.8,0,5.6c-0.5-0.3-1-0.6-1.5-0.8&#10;&#9;&#9;&#9;&#9;c-3.7-1.3-7.8,0.5-9.2,4.1c-0.8,2-0.6,4.1,0.4,5.8c-0.3,0.2-0.5,0.5-0.8,0.8c-0.8-1-1.9-1.9-3.3-2.3c-3.7-1.2-7.8,0.7-9.1,4.3&#10;&#9;&#9;&#9;&#9;c-0.7,2-0.5,4.1,0.5,5.8c-2.9-0.7-6,0.5-7.6,2.8c-0.6-0.4-1.2-0.7-1.9-0.9c-3.7-1.1-7.7,1-8.9,4.7c-0.5,1.7-0.4,3.4,0.3,4.8&#10;&#9;&#9;&#9;&#9;c-0.9-0.2-1.8-0.3-2.7-0.2c-2.3,0.3-4.2,1.6-5.3,3.4c-1.3-0.7-2.8-1-4.3-0.9c-2.5,0.3-4.6,1.9-5.6,3.9c-1.2-0.5-2.5-0.8-3.8-0.6&#10;&#9;&#9;&#9;&#9;c-3,0.4-5.4,2.5-6.1,5.3c-1.2-0.6-2.6-0.8-4-0.7c-3.2,0.4-5.6,2.7-6.2,5.6c-0.7-0.1-1.4-0.1-2.1-0.1c-3.9,0.5-6.7,3.9-6.3,7.7&#10;&#9;&#9;&#9;&#9;c-2.1,1.4-5.2,5.2,2.7,12.3c0,0,37-20.4,46.8-8.8c9.8,11.6-7,16.1-2.9,24.4c4.1,8.3,22.8,23.7,24.2,36.3&#10;&#9;&#9;&#9;&#9;c1.4,12.6-6,21.9,11.5,18.7c8.4-1.5-4.3-35.7,1.3-40c5.6-4.3,17.4-4.9,18.1,5.4c0.7,10.3,0.3,23.5,6.6,29.2&#10;&#9;&#9;&#9;&#9;c6.3,5.7,30,19.7,15.7,33.1c-9.4,8.8-22,1-26.2-2.1c-2.3-1.9-4.8-3.8-7.7-5.5c-6.9,24.4-42.1,48.1-50.8,54&#10;&#9;&#9;&#9;&#9;c7.2,3.5,52.4,6.1,52.4,6.1l0.6,51.5l100.1-30.2l-26.1-78.9l-4.6-15.6c0.6-1.1,0.9-2.3,0.9-3.6c0-0.8-0.2-1.5-0.4-2.1&#10;&#9;&#9;&#9;&#9;c2.1-1.3,3.5-3.6,3.4-6.2c-0.1-2.4-1.4-4.4-3.3-5.6c2.7-1.1,4.6-3.7,4.5-6.8c-0.1-2-1-3.8-2.5-5c1.8-1.3,3-3.5,2.9-5.9&#10;&#9;&#9;&#9;&#9;c-0.1-2.2-1.2-4.1-2.9-5.3c1.6-1.3,2.6-3.4,2.5-5.6c-0.1-2.6-1.6-4.8-3.8-5.9c0.7-1.1,1.1-2.5,1.1-3.9c-0.1-2.3-1.2-4.2-3-5.4&#10;&#9;&#9;&#9;&#9;c0.8-1.2,1.3-2.6,1.3-4.2c-0.1-2.5-1.5-4.6-3.5-5.7c0.6-1.1,1-2.4,1-3.7c-0.1-3-2.1-5.4-4.8-6.3c0.7-1.1,1.1-2.5,1-3.9&#10;&#9;&#9;&#9;&#9;c-0.1-3.1-2.3-5.6-5.2-6.4c0.2-0.6,0.3-1.3,0.2-2c0-1.1-0.4-2.2-0.9-3.1c0,0,0,0,0,0c1.1-3.4-0.6-6.9-3.7-8.3&#10;&#9;&#9;&#9;&#9;c1.7-0.8,3.1-2.2,3.8-4.1c1.2-3.2-0.2-6.7-3.1-8.3c1.8-0.7,3.4-2.1,4.1-4.1c1.1-2.8,0.2-5.9-2-7.7c0.8-0.7,1.4-1.5,1.8-2.4&#10;&#9;&#9;&#9;&#9;C856.8,158.6,855.2,154.5,851.6,153z M822.4,166.8c-0.1-0.3-0.2-0.5-0.3-0.8c0.1-0.1,0.3-0.2,0.4-0.3c0.2,0.2,0.4,0.5,0.6,0.7&#10;&#9;&#9;&#9;&#9;C822.8,166.5,822.6,166.6,822.4,166.8z M835.9,184.2c0-0.1,0-0.3,0-0.4c0.2,0,0.4,0,0.5,0C836.3,184,836.1,184.1,835.9,184.2z&#10;&#9;&#9;&#9;&#9; M833,170.8c-0.3-1.1-0.9-2.2-1.7-3c0.2-0.1,0.3-0.2,0.5-0.3c0.4,1.1,1,2.1,1.9,3C833.5,170.6,833.2,170.7,833,170.8z&#10;&#9;&#9;&#9;&#9; M840.5,182.7c-0.1,0-0.2,0-0.3,0c0.1-0.1,0.2-0.1,0.3-0.2C840.5,182.5,840.5,182.6,840.5,182.7z M843.4,176.8&#10;&#9;&#9;&#9;&#9;c0-1.9-0.8-3.7-2.2-5c0.2-0.1,0.4-0.2,0.6-0.2c0.4,1.8,1.6,3.4,3.3,4.4C844.5,176.2,843.9,176.5,843.4,176.8z" transform="matrix(1, 0, 0, 1, -3.6380615234375, -7.276123046875)"/><path fill="#597D68" d="M736.1,245c-2.5,0.4-5,1-7.4,1.7c-2.5,0.7-4.9,1.6-7.3,2.7c-2.3,1.2-4.7,2.6-6.5,4.8l-0.4,0.5l0.1,0.7&#10;&#9;&#9;&#9;c0.7,8,1.5,16,2.6,24c0.3,2,0.6,4,0.9,6c0.3,2,0.6,4,0.9,6c0.7,4,1.4,8,2.3,11.9c0.1-4.1,0-8.1-0.2-12.1c-0.1-2-0.2-4-0.3-6&#10;&#9;&#9;&#9;c-0.1-2-0.2-4-0.4-6c-0.6-7.8-1.3-15.6-2.3-23.4c1.2-1.4,3-2.7,4.8-3.7c2.1-1.2,4.3-2.2,6.6-3.1c2.3-0.9,4.6-1.7,7-2.5&#10;&#9;&#9;&#9;c2.4-0.8,4.8-1.5,7.2-2.2C741.1,244.3,738.6,244.6,736.1,245z" transform="matrix(1, 0, 0, 1, -3.6380615234375, -7.276123046875)"/><path d="M 725.9000244140625 270.1000061035156 L 743.5 264.6000061035156 L 729.2000122070312 272.1000061035156 L 729.0999755859375 270.1000061035156 Z" fill="#597D68" transform="matrix(1, 0, 0, 1, -3.6380615234375, -7.276123046875)"/><path fill="#597D68" d="M728.7,320.6c0,0,2.1,3.5,6.3,2.3l7.5-2.3l-2-3.6l0.7,2.9L728.7,320.6z" transform="matrix(1, 0, 0, 1, -3.6380615234375, -7.276123046875)"/><path fill="#597D68" d="M732.9,292.7c0,0,13.1,22.9,37.3,1.6L732.9,292.7z" transform="matrix(1, 0, 0, 1, -3.6380615234375, -7.276123046875)"/><path d="M 825.399976 304.700012 A 7.3 7.1 0 0 1 818.099976 311.800012 A 7.3 7.1 0 0 1 810.799975 304.700012 A 7.3 7.1 0 0 1 818.099976 297.600012 A 7.3 7.1 0 0 1 825.399976 304.700012 Z" transform="matrix(0.9557000994682312, -0.29430001974105835, 0.29430001974105835, 0.9557000994682312, -57.08876037597656, 247.0426788330078)" fill="#597D68"/><path d="M 800.4000244140625 262.79998779296875 L 801.7000122070312 251.3000030517578 L 790 248.6999969482422 L 788.4000244140625 262.5 L 798.2999877929688 276.5 L 796.0999755859375 287.5 L 803.5 290.20001220703125 L 808.9000244140625 282.1000061035156 L 799.7999877929688 280.6000061035156 L 803.5 272.8999938964844 L 793 266 L 790.2999877929688 254.8000030517578 L 795.9000244140625 251.60000610351562 Z" fill="#597D68" transform="matrix(1, 0, 0, 1, -3.6380615234375, -7.276123046875)"/><path d="M 711.800025 231.699997 A 3.4 6.7 0 0 1 708.400024 238.399997 A 3.4 6.7 0 0 1 705.000024 231.699997 A 3.4 6.7 0 0 1 708.400024 224.999997 A 3.4 6.7 0 0 1 711.800025 231.699997 Z" transform="matrix(0.9905000925064087, -0.13779997825622559, 0.13779997825622559, 0.9905000925064087, -28.80516242980957, 92.54427337646484)" fill="#597D68"/><path fill="#597D68" d="M687.6,514l-1.8-12.7l-29.8,5.2l-0.5-8.5c1.4-1.1,7.2-5.6,9.5-8.7c5.5-7.3,15.7-34,16.1-35.1l0.1-0.2&#10;&#9;&#9;&#9;l0-0.2c0-0.2-4.1-17-4.4-22.8c-0.1-1.3-1.2-2.1-3-2.1c-2.1,0-5.4,1.2-7.7,4.7c-0.9,1.4-0.7,4.5-0.5,8.5c0.3,5.3,0.7,11.9-2,13.8&#10;&#9;&#9;&#9;c-0.7-1.1-0.7-6.9-0.1-12c0-0.1,1.6-11.1,1.5-19.1l0.1,0l-0.1-0.1c0-0.7,0-1.4-0.1-2.1l0,0c-0.1-0.8-2.9-20.1-4-21.9&#10;&#9;&#9;&#9;c-0.7-1-1.7-1.6-3-1.6c-1.1,0-2.2,0.4-2.9,1.2c-0.8,0.7-1.1,1.6-1.1,2.6c0,0.2,0,0.5,0,1.4c0,3.3-0.1,12-0.7,20.5&#10;&#9;&#9;&#9;c-0.3,4.2-0.8,7.9-1.4,10.5c-0.3-4.2-0.7-11-1.3-17.8c-1.8-22.6-2.9-23.8-3.3-24.3c-1.7-1.9-3.2-2.8-4.6-2.8&#10;&#9;&#9;&#9;c-1.6,0-2.8,1.1-3.8,2.2c-0.5,0.5-0.7,3.4-1.8,19.3c-0.5,6.8-1.1,15.3-1.6,20.6c-0.4-3.6-0.9-8.7-1-13.8c-0.1-3.7,0-7.3,0.1-10.5&#10;&#9;&#9;&#9;c0.2-7.4,0.2-8.9-1-9.2c-1.1-0.2-1.9-0.4-2.8-0.4c-1.1,0-2.3,0.3-3.7,0.9c-1.2,0.5-1.7,3.3-2.4,10.8c-0.1,1.5-0.3,3-0.4,4&#10;&#9;&#9;&#9;c-0.5-0.2-0.9-0.3-1.3-0.3c-0.5,0-0.9,0.1-1.3,0.3c0-0.1,0-0.1,0-0.2c0,0.1-0.1,0.1-0.1,0.2c-1.9,0.9-3,3.6-4.4,6.8&#10;&#9;&#9;&#9;c-1.1,2.5-2.3,5.4-4,8.1l-0.1,0.1c-0.4,0.9-0.5,3.4-0.5,7.5c-0.1,3.1-0.1,6.6-0.5,7.8l-3.2,11.1l0,0.1c-0.1,0.8-2,19.6-0.8,26&#10;&#9;&#9;&#9;l0,0.2c0.7,3.9,0.9,5.1,4.6,9.7c0.6,0.7,1.7,4.8-1.2,26.2c-0.8,6-1.7,12-2.4,16.4l-13.4,7.8l-9.3,49.7l-30.2,26.8l-3.5,76.8&#10;&#9;&#9;&#9;l165.6,18.9L706.4,511L687.6,514z" transform="matrix(1, 0, 0, 1, -3.6380615234375, -7.276123046875)"/><path fill="#7CA588" d="M919.7,722.8V706v0c19.8-11.8,29.8-31.4,26.2-50.9l-26.2-140.3V385.7l-24-18.8l-102.9,18.2&#10;&#9;&#9;&#9;c0,0-114.3,21.5-122.9,288.7c0,0-173.9-64-211.6-11.5c-17.1,23.7-16.9,40-11.7,50.6l-50.1-11l47,99.7l531.2-7.7l28.9-106&#10;&#9;&#9;&#9;L919.7,722.8z" transform="matrix(1, 0, 0, 1, -3.6380615234375, -7.276123046875)"/><path fill="#597D68" d="M919.7,722.8V706v0c19.8-11.8,29.8-31.4,26.2-50.9l-26.2-140.3V385.7l-24-18.8l-26.7,4.7l-134.7,58&#10;&#9;&#9;&#9;c-6.3,8.3-12.7,18.1-18.8,29.7l130.3-45l-149.6,90.8c-8,24.1-24.8,60.6-29.6,95.1L819.1,504L668.9,610.4&#10;&#9;&#9;&#9;c-1.6,15.2-4.1,31.5-4.9,48.8l131.7,55.7h-57.1l-84.3-53.3c-18.2-6.1-51.4-14.5-90.9-20.7l56.8,74h-35.1l-63.7-73.3&#10;&#9;&#9;&#9;c-27.8-0.5-51.7,4.8-63.1,20.7c-17.1,23.7-16.9,40-11.7,50.6l-50.1-11l47,99.7l531.2-7.7l28.9-106L919.7,722.8z M750.2,628.7&#10;&#9;&#9;&#9;c0,0,102.3-55.7,151.9,0H750.2z M778.1,604c0,0,109.3-96.4,124-31C902.1,572.9,874.2,541.8,778.1,604z" transform="matrix(1, 0, 0, 1, -3.6380615234375, -7.276123046875)"/><path d="M 286.700012 785.900024 H 1113.299988 V 847.300026 H 286.700012 V 785.900024 Z" fill="#7CA588" transform="matrix(1, 0, 0, 1, -3.6380615234375, -7.276123046875)"/><path d="M 249.899994 847.299988 H 1150.100006 V 922.699989 H 249.899994 V 847.299988 Z" fill="#6B917D" transform="matrix(1, 0, 0, 1, -3.6380615234375, -7.276123046875)"/><path d="M 177.899994 922.700012 H 1222.099945 V 980.000011 H 177.899994 V 922.700012 Z" fill="#597D68" transform="matrix(1, 0, 0, 1, -3.6380615234375, -7.276123046875)"/><path fill="#3D5C49" d="M563.1,944.1V869h-53.5v-42.7c0,0-30.9-8.9-68-84.4c-37-75.4-52.1-169.1-69.9-190.6&#10;&#9;&#9;c-4.3-5.2-8.8-9.8-13.3-13.7h3.6c2.6,0,4.6-2.1,4.6-4.6v-29.8c0-2.6-2.1-4.6-4.6-4.6h-16.8v-4.9h4.1V479h-9.6v-9.8h4.2v-9H332&#10;&#9;&#9;v-13.9h-7.7c1.9-4.5,3.1-10.3,3.1-16.7c0-9.5-2.6-17.8-6.5-22.3h6.2v-9.4h-5.8v-3.2h2.8v-6.9h-3.8L313.3,69l-5.2,318.8h-3.8v6.9&#10;&#9;&#9;h3.2v3.2h-6.2v9.4h6.2c-3.9,4.5-6.5,12.8-6.5,22.3c0,6.4,1.2,12.2,3.1,16.7h-7.7v13.9h-11.9v9h4.2v9.8h-9.6v14.6h4.1v4.9h-16.8&#10;&#9;&#9;c-2.6,0-4.6,2.1-4.6,4.6V533c0,2.6,2.1,4.6,4.6,4.6h3.6c-4.5,4-9,8.5-13.3,13.7c-17.9,21.5-32.9,115.2-69.9,190.6&#10;&#9;&#9;c-37,75.4-68,84.4-68,84.4V869H65.3v75.1h-37V980h285.9h0h285.9v-35.9H563.1z" transform="matrix(1, 0, 0, 1, -3.6380615234375, -7.276123046875)"/><path fill="#FFFFFF" d="M0,0l0,980h1400V0L0,0z M28.3,88.1c0-37.8,30.6-68.4,68.4-68.4h1206.7c37.8,0,68.4,30.6,68.4,68.4v803.7&#10;&#9;&#9;c0,37.8-30.6,68.4-68.4,68.4H96.6c-37.8,0-68.4-30.6-68.4-68.4V88.1z" transform="matrix(1, 0, 0, 1, -3.6380615234375, -7.276123046875)"/>
</svg>